<svg width="403" height="360" viewBox="0 0 403 360" fill="none" xmlns="http://www.w3.org/2000/svg">
<path d="M1.01156 329.207C5.71305 347.731 27.3719 356.422 42.7701 358.782C42.7701 358.782 367.86 359.273 376.379 358.782C395.938 353.86 402.069 347.797 401.618 329.207V275.971H318.56C305.19 271.603 300.508 267.447 298.369 256.255V222.736C300.553 210.318 304.287 204.89 318.56 199.865H401.618V147.024C396.453 129.78 389.939 122.799 363.99 120.997H42.7701C21.6673 118.55 0.432951 136.651 1.01156 147.024V329.207Z" fill="#8B4513"/>
<path fill-rule="evenodd" clip-rule="evenodd" d="M401.618 275.971V199.865H318.56C304.287 204.89 300.553 210.318 298.369 222.736V256.255C300.508 267.447 305.19 271.603 318.56 275.971H401.618ZM351.141 250.734C348.074 251.314 346.263 251.307 342.881 250.734C337.27 248.633 335.235 246.598 332.785 242.058C331.995 238.987 332.067 237.36 332.785 234.566C335.078 230.242 336.554 227.927 342.881 225.891C346.107 225.512 347.915 225.332 351.141 225.891C356.213 227.928 358.677 229.522 361.236 234.566C361.602 237.364 361.675 238.979 361.236 242.058C359.056 246.243 357.718 248.538 351.141 250.734Z" fill="#6A3713"/>
<path d="M401.618 199.865V147.024C396.453 129.78 389.939 122.799 363.99 120.997H42.7701C21.6673 118.55 0.432951 136.651 1.01156 147.024V329.207C5.71305 347.731 27.3719 356.422 42.7701 358.782C42.7701 358.782 367.86 359.273 376.379 358.782C395.938 353.86 402.069 347.797 401.618 329.207V275.971M401.618 199.865V275.971M401.618 199.865H318.56C304.287 204.89 300.553 210.318 298.369 222.736V256.255C300.508 267.447 305.19 271.603 318.56 275.971H401.618M342.881 250.734C346.263 251.307 348.074 251.314 351.141 250.734C357.718 248.538 359.056 246.243 361.236 242.058C361.675 238.979 361.602 237.364 361.236 234.566C358.677 229.522 356.213 227.928 351.141 225.891C347.915 225.332 346.107 225.512 342.881 225.891C336.554 227.927 335.078 230.242 332.785 234.566C332.067 237.36 331.995 238.987 332.785 242.058C335.235 246.598 337.27 248.633 342.881 250.734Z" stroke="black" stroke-linejoin="round"/>
<path d="M126.274 119.984C126.274 119.984 257.056 0.499983 262.562 0.499969C268.069 0.499956 275.587 0.841411 275.87 10.7527V119.984H126.274Z" fill="#28A745" stroke="black"/>
</svg>
